<svg id="Layer_1" data-name="Layer 1" xmlns="http://www.w3.org/2000/svg" viewBox="0 0 49.62 47.53"><defs><style>.cls-1{fill:#fff;}</style></defs><path class="cls-1" d="M24.25,71.68V35.47A9.76,9.76,0,0,1,34,25.72H56a9.76,9.76,0,0,1,9.75,9.75V71.68Z" transform="translate(-19.81 -25.47)"/><path d="M56,26a9.51,9.51,0,0,1,9.5,9.5v36h-41v-36A9.51,9.51,0,0,1,34,26H56m0-.5H34a10,10,0,0,0-10,10V71.93H66V35.47a10,10,0,0,0-10-10Z" transform="translate(-19.81 -25.47)"/><path class="cls-1" d="M20.06,72.24V40.83a3.56,3.56,0,0,1,7.12,0V72.24Z" transform="translate(-19.81 -25.47)"/><path d="M23.62,37.53a3.31,3.31,0,0,1,3.31,3.3V72H20.31V40.83a3.31,3.31,0,0,1,3.31-3.3m0-.5h0a3.81,3.81,0,0,0-3.81,3.8V72.49h7.62V40.83A3.81,3.81,0,0,0,23.62,37Z" transform="translate(-19.81 -25.47)"/><path class="cls-1" d="M62.06,72.18V40.78a3.56,3.56,0,0,1,7.12,0v31.4Z" transform="translate(-19.81 -25.47)"/><path d="M65.62,37.47a3.31,3.31,0,0,1,3.31,3.31V71.93H62.31V40.78a3.31,3.31,0,0,1,3.31-3.31m0-.5h0a3.81,3.81,0,0,0-3.81,3.81V72.43h7.62V40.78A3.81,3.81,0,0,0,65.62,37Z" transform="translate(-19.81 -25.47)"/><rect class="cls-1" x="7.44" y="41.69" width="34.5" height="5.59"/><path d="M61.5,67.41V72.5h-34V67.41h34m.5-.5H27V73H62V66.91Z" transform="translate(-19.81 -25.47)"/></svg>